<svg width="12" height="11" viewBox="0 0 12 11" fill="none" xmlns="http://www.w3.org/2000/svg">
<path d="M11.7919 5.14286L11.4504 5.48438L7.43255 9.50223L7.09103 9.84375L6.42808 9.16071L6.7696 8.8192L10.4459 5.14286L6.7696 1.46652L6.42808 1.125L7.09103 0.441964L7.43255 0.783482L11.4504 4.80134L11.7919 5.14286Z" fill="white"/>
<path opacity="0.4" d="M8.57757 5.14286L8.23605 5.48438L4.21819 9.50223L3.87667 9.84375L3.21373 9.16071L3.55525 8.8192L7.23158 5.14286L3.55525 1.46652L3.21373 1.125L3.87667 0.441964L4.21819 0.783482L8.23605 4.80134L8.57757 5.14286Z" fill="white"/>
<path opacity="0.1" d="M5.3637 5.14286L5.02218 5.48438L1.00432 9.50223L0.662807 9.84375L-0.00013967 9.16071L0.341378 8.8192L4.01772 5.14286L0.341378 1.46652L-0.00013967 1.125L0.662807 0.441964L1.00432 0.783482L5.02218 4.80134L5.3637 5.14286Z" fill="white"/>
</svg>
