<svg width="111" height="25" viewBox="0 0 111 25" fill="none" xmlns="http://www.w3.org/2000/svg">
<path d="M55.75 24.6698H57V22.1698H55.75V23.4198V24.6698ZM1.25 0C0.559644 0 0 0.559644 0 1.25V12.5C0 13.1904 0.559644 13.75 1.25 13.75C1.94036 13.75 2.5 13.1904 2.5 12.5V2.5H12.5C13.1904 2.5 13.75 1.94036 13.75 1.25C13.75 0.559644 13.1904 0 12.5 0H1.25ZM55.75 23.4198V22.1698C40.8967 22.1698 30.4651 19.6535 22.2934 15.7092C14.1129 11.7606 8.10833 6.34056 2.13388 0.366117L1.25 1.25L0.366117 2.13388C6.39167 8.15944 12.6371 13.8243 21.2066 17.9606C29.7849 22.1012 40.6033 24.6698 55.75 24.6698V23.4198Z" fill="url(#paint0_linear_5912_8103)"/>
<path d="M55.25 24.6698H54V22.1698H55.25V23.4198V24.6698ZM109.75 0C110.44 0 111 0.559644 111 1.25V12.5C111 13.1904 110.44 13.75 109.75 13.75C109.06 13.75 108.5 13.1904 108.5 12.5V2.5H98.5C97.8096 2.5 97.25 1.94036 97.25 1.25C97.25 0.559644 97.8096 0 98.5 0H109.75ZM55.25 23.4198V22.1698C70.1033 22.1698 80.5349 19.6535 88.7066 15.7092C96.8871 11.7606 102.892 6.34056 108.866 0.366117L109.75 1.25L110.634 2.13388C104.608 8.15944 98.3629 13.8243 89.7934 17.9606C81.2151 22.1012 70.3967 24.6698 55.25 24.6698V23.4198Z" fill="url(#paint1_linear_5912_8103)"/>
<defs>
<linearGradient id="paint0_linear_5912_8103" x1="4.25" y1="-1.75" x2="59.75" y2="19.75" gradientUnits="userSpaceOnUse">
<stop stop-color="white"/>
<stop offset="1" stop-color="white" stop-opacity="0"/>
</linearGradient>
<linearGradient id="paint1_linear_5912_8103" x1="106.75" y1="-1.75" x2="51.25" y2="19.75" gradientUnits="userSpaceOnUse">
<stop stop-color="white"/>
<stop offset="1" stop-color="white" stop-opacity="0"/>
</linearGradient>
</defs>
</svg>
