<svg width="39" height="30" viewBox="0 0 39 30" fill="none" xmlns="http://www.w3.org/2000/svg">
<path d="M19.125 0C29.6172 0 36.2578 9.89453 38.25 14.875C36.2578 19.8555 29.6172 29.75 19.125 29.75C8.63281 29.75 1.99219 19.8555 0 14.875C1.99219 9.89453 8.63281 0 19.125 0ZM9.5625 14.875C9.5625 20.1875 13.8125 24.4375 19.125 24.4375C24.4375 24.4375 28.6875 20.1875 28.6875 14.875C28.6875 9.5625 24.4375 5.3125 19.125 5.3125C13.8125 5.3125 9.5625 9.5625 9.5625 14.875ZM19.125 21.25C15.6055 21.25 12.75 18.3945 12.75 14.875H19.125V8.5C22.6445 8.5 25.5 11.3555 25.5 14.875C25.5 18.3945 22.6445 21.25 19.125 21.25Z" fill="white"/>
</svg>
