<svg width="83" height="24" viewBox="0 0 83 24" fill="none" xmlns="http://www.w3.org/2000/svg">
<path d="M17.9629 0.667468C18.321 0.66748 18.5411 1.05829 18.3552 1.36541L12.4578 11.1111C12.0093 11.8529 12.0093 12.7829 12.4578 13.5247L18.3011 23.1815C18.487 23.4875 18.2669 23.8804 17.9088 23.8804H14.222C14.0614 23.8804 13.9125 23.7957 13.8287 23.6577L9.34617 16.2511L9.33799 16.2654L8.67807 15.1178C7.99394 13.93 6.48372 13.4647 5.28346 14.1225C4.67204 14.4584 4.25995 15.0091 4.08212 15.6278H4.07088V15.6707C4.05954 15.7131 4.07181 15.7497 4.06271 15.7933V16.8469C4.07188 16.8894 4.05944 16.9402 4.07088 16.9828V23.5391C4.07088 23.7932 3.86562 23.9997 3.6122 24H0.458676C0.205281 23.9997 0 23.7932 0 23.5391V1.16512C0 0.906305 0.212843 0.699526 0.469913 0.705278L4.04125 0.786006V9.03154C4.04125 9.0856 4.04933 9.14136 4.06884 9.19197C4.24899 9.67261 4.57806 10.1014 5.04033 10.4039C6.1983 11.1608 7.74926 10.8329 8.50441 9.67225L9.34719 8.37856V8.3806L9.39316 8.306L9.58214 8.01783C9.63723 7.93386 9.68257 7.84672 9.72618 7.7593C9.73187 7.74904 9.73786 7.7389 9.74355 7.72864L13.8849 0.883084C13.9687 0.745048 14.1175 0.661337 14.2782 0.661337H17.965L17.9629 0.667468ZM82.5423 0.661337L82.5403 0.667468C82.8982 0.667618 83.1184 1.05834 82.9325 1.36541L77.0351 11.1111C76.5866 11.8529 76.5865 12.7829 77.0351 13.5247L82.8784 23.1815C83.0643 23.4875 82.8442 23.8804 82.4861 23.8804H78.7983C78.6378 23.8803 78.4897 23.7956 78.406 23.6577L73.9235 16.2511L73.9153 16.2654L73.2554 15.1178C72.5713 13.9299 71.0611 13.4646 69.8608 14.1225C69.2493 14.4584 68.8373 15.009 68.6594 15.6278H68.6482V15.6707C68.6368 15.7131 68.6491 15.7497 68.64 15.7933V16.8469C68.6492 16.8894 68.6367 16.9402 68.6482 16.9828V23.5391C68.6482 23.7933 68.4421 24 68.1885 24H65.036C64.7825 23.9998 64.5773 23.7932 64.5773 23.5391V1.16512C64.5773 0.906448 64.7893 0.699763 65.0462 0.705278L68.6186 0.786006V9.03154C68.6186 9.08557 68.6256 9.14138 68.6451 9.19197C68.8253 9.67273 69.1553 10.1014 69.6176 10.4039C70.7756 11.1608 72.3266 10.8329 73.0817 9.67225L73.9245 8.37856V8.3806L73.9705 8.306L74.1584 8.01783C74.2135 7.93386 74.2599 7.84672 74.3035 7.7593C74.3092 7.74907 74.3152 7.73887 74.3209 7.72864L78.4622 0.883084C78.5459 0.745198 78.694 0.661505 78.8545 0.661337H82.5423ZM24.3916 0.693015C24.6451 0.693015 24.8512 0.898737 24.8513 1.15286V17.8769C24.8513 19.0042 25.7625 19.9176 26.8872 19.9176H34.7062C34.9596 19.9178 35.1648 20.1244 35.1648 20.3785V23.5381C35.1647 23.7921 34.9595 23.9977 34.7062 23.998H21.2677C21.0142 23.9977 20.809 23.7932 20.809 23.5391L20.7804 1.15388C20.7806 0.898774 20.9857 0.693185 21.2391 0.693015H24.3916ZM49.678 0.00733535C56.7897 0.241586 62.4839 6.09148 62.4831 13.2734C62.4831 17.3682 61.0059 21.0299 58.3969 23.4645C58.1484 23.6964 57.8171 23.815 57.4775 23.815H40.8957C40.556 23.815 40.2246 23.6969 39.9763 23.4645C37.3782 21.0311 35.9831 17.373 35.9811 13.2825C35.9769 5.80829 42.2218 -0.240179 49.678 0.00733535ZM44.4119 4.53119C43.3639 4.78158 42.5674 5.75522 42.4873 6.94486C42.4263 7.44845 42.1909 9.11592 42.187 9.14394L42.1247 9.74276C42.1158 9.82792 42.074 9.90793 42.0072 9.96145C41.71 10.1942 39.989 10.4049 39.6423 10.4846C39.5086 10.5162 39.4064 11.2819 39.391 11.4186C38.6097 16.5566 41.9452 20.8212 47.0434 21.9409C53.8644 23.419 59.9713 18.2808 58.9476 11.4186C58.9322 11.2819 58.8299 10.5164 58.6962 10.4846C58.3495 10.4048 56.6274 10.1942 56.3314 9.96145C56.2634 9.90793 56.2227 9.82793 56.2139 9.74276L56.1516 9.14394C56.1476 9.11608 55.9123 7.44848 55.8512 6.94486C55.7711 5.75523 54.9746 4.7816 53.9266 4.53119H44.4119Z" fill="#24130B"/>
</svg>
