<svg width="670" height="599" viewBox="0 0 670 599" fill="none" xmlns="http://www.w3.org/2000/svg">
<path d="M666.181 233.553C665.661 228.918 662.204 202.927 657.67 201.889C645.926 199.182 587.574 192.026 577.576 184.128C575.272 182.312 573.897 179.605 573.6 176.713L571.481 156.431C571.481 156.431 563.416 99.0348 561.335 81.8307C558.622 41.49 531.639 8.49081 496.145 0H173.875C138.381 8.49081 111.398 41.49 108.685 81.8307C106.603 99.0348 98.5384 156.431 98.5384 156.431L96.4199 176.713C96.1226 179.605 94.7102 182.312 92.4431 184.128C82.4081 192.026 24.094 199.182 12.3494 201.889C7.81512 202.927 4.35864 228.918 3.83831 233.553C-22.6242 407.782 90.3246 552.385 263 590.353C494.026 640.482 700.858 466.253 666.181 233.553Z" fill="#FF5215"/>
</svg>
